<svg width="34" height="16" viewBox="0 0 34 16" fill="none" xmlns="http://www.w3.org/2000/svg">
<path d="M7.04883 4.49219C7.04883 5.13672 6.94466 5.78451 6.73633 6.43555C6.53451 7.08659 6.24805 7.69531 5.87695 8.26172C5.51237 8.82812 5.07292 9.33268 4.55859 9.77539C4.04427 10.2181 3.48112 10.5534 2.86914 10.7812C2.9082 11.3216 2.95378 11.8587 3.00586 12.3926C3.05794 12.9264 3.12956 13.4635 3.2207 14.0039C3.24023 14.1016 3.25977 14.2025 3.2793 14.3066C3.30534 14.4108 3.31836 14.5182 3.31836 14.6289C3.31836 14.7982 3.27604 14.9121 3.19141 14.9707C3.10677 15.0293 2.98633 15.0586 2.83008 15.0586C2.7194 15.0586 2.58594 15.0456 2.42969 15.0195C2.27344 14.9935 2.13997 14.9544 2.0293 14.9023C1.89909 14.8307 1.8112 14.7591 1.76562 14.6875C1.72656 14.6094 1.69727 14.5052 1.67773 14.375C1.56706 13.8216 1.4987 13.2682 1.47266 12.7148C1.45312 12.1615 1.42383 11.6081 1.38477 11.0547C1.25456 11.0417 1.14714 11.0091 1.0625 10.957C0.977865 10.8984 0.935547 10.8008 0.935547 10.6641C0.935547 10.5339 0.971354 10.3971 1.04297 10.2539C1.12109 10.1107 1.20898 10 1.30664 9.92188C1.24805 8.71094 1.22201 7.50977 1.22852 6.31836C1.24154 5.12695 1.24154 3.92578 1.22852 2.71484C1.19596 2.72786 1.16667 2.73763 1.14062 2.74414C1.11458 2.75065 1.08529 2.75391 1.05273 2.75391C0.98112 2.75391 0.922526 2.73763 0.876953 2.70508C0.83138 2.66602 0.792318 2.62044 0.759766 2.56836C0.733724 2.51628 0.714193 2.46094 0.701172 2.40234C0.688151 2.33724 0.681641 2.27865 0.681641 2.22656C0.681641 2.03125 0.730469 1.89128 0.828125 1.80664C0.925781 1.71549 1.05924 1.63411 1.22852 1.5625C1.22852 1.49089 1.22852 1.40951 1.22852 1.31836C1.23503 1.2207 1.24805 1.13281 1.26758 1.05469C1.29362 0.970052 1.33268 0.901693 1.38477 0.849609C1.43685 0.791016 1.51497 0.761719 1.61914 0.761719C1.78841 0.761719 1.95117 0.794271 2.10742 0.859375C2.26367 0.924479 2.38086 1.03516 2.45898 1.19141C2.68685 1.15234 2.9082 1.11654 3.12305 1.08398C3.33789 1.05143 3.55924 1.03516 3.78711 1.03516C4.30143 1.03516 4.76042 1.12305 5.16406 1.29883C5.56771 1.4681 5.90951 1.70898 6.18945 2.02148C6.4694 2.32747 6.68099 2.69206 6.82422 3.11523C6.97396 3.53841 7.04883 3.9974 7.04883 4.49219ZM5.58398 4.31641C5.58398 4.01693 5.54492 3.73698 5.4668 3.47656C5.38867 3.20964 5.27148 2.98177 5.11523 2.79297C4.95898 2.59766 4.76042 2.44466 4.51953 2.33398C4.27865 2.22331 3.99544 2.16797 3.66992 2.16797C3.49414 2.16797 3.3151 2.18099 3.13281 2.20703C2.95703 2.23307 2.78451 2.27214 2.61523 2.32422C2.61523 3.51562 2.62174 4.69727 2.63477 5.86914C2.6543 7.04102 2.69987 8.21615 2.77148 9.39453C3.18815 9.17969 3.56901 8.88021 3.91406 8.49609C4.25911 8.11198 4.55534 7.6888 4.80273 7.22656C5.05013 6.75781 5.24219 6.27279 5.37891 5.77148C5.51562 5.26367 5.58398 4.77865 5.58398 4.31641ZM15.3398 7.40234C15.3398 7.69531 15.265 7.90365 15.1152 8.02734C14.9655 8.14453 14.7539 8.22917 14.4805 8.28125C14.5391 9.28385 14.5749 10.2799 14.5879 11.2695C14.6074 12.2591 14.6172 13.2552 14.6172 14.2578C14.6172 14.4141 14.5846 14.5345 14.5195 14.6191C14.4544 14.7038 14.3372 14.7461 14.168 14.7461C14.0247 14.7461 13.8815 14.7298 13.7383 14.6973C13.6016 14.6647 13.4779 14.6159 13.3672 14.5508C13.2565 14.4792 13.1654 14.388 13.0938 14.2773C13.0286 14.1602 12.9961 14.0169 12.9961 13.8477V10.8008C12.9961 10.4167 12.9961 10.0326 12.9961 9.64844C12.9961 9.26432 12.9896 8.88021 12.9766 8.49609C12.4167 8.57422 11.8568 8.64258 11.2969 8.70117C10.737 8.75326 10.1771 8.78906 9.61719 8.80859C9.63672 10.1953 9.67578 11.582 9.73438 12.9688C9.75391 13.2552 9.77344 13.5352 9.79297 13.8086C9.81901 14.082 9.83203 14.3555 9.83203 14.6289C9.83203 14.7591 9.79622 14.8568 9.72461 14.9219C9.65299 14.987 9.55208 15.0195 9.42188 15.0195C9.32422 15.0195 9.22005 15.013 9.10938 15C8.9987 14.9805 8.88802 14.9512 8.77734 14.9121C8.67318 14.873 8.57552 14.8242 8.48438 14.7656C8.39323 14.707 8.32161 14.6354 8.26953 14.5508C8.25 14.5182 8.23372 14.4206 8.2207 14.2578C8.20768 14.0951 8.19466 13.89 8.18164 13.6426C8.17513 13.3952 8.16862 13.1152 8.16211 12.8027C8.1556 12.4902 8.15234 12.168 8.15234 11.8359C8.15234 11.5039 8.15234 11.1784 8.15234 10.8594C8.15234 10.5339 8.15234 10.2344 8.15234 9.96094C8.15234 9.6875 8.15234 9.44987 8.15234 9.24805C8.15234 9.04622 8.15234 8.90625 8.15234 8.82812C8.0612 8.82812 7.97982 8.80859 7.9082 8.76953C7.83659 8.72396 7.80078 8.65234 7.80078 8.55469C7.80078 8.4375 7.83333 8.32682 7.89844 8.22266C7.97005 8.11198 8.05469 8.02083 8.15234 7.94922V2.05078C8.15234 1.92057 8.17513 1.81641 8.2207 1.73828C8.27279 1.66016 8.36719 1.62109 8.50391 1.62109C8.72526 1.62109 8.90104 1.65365 9.03125 1.71875C9.16797 1.78385 9.26888 1.875 9.33398 1.99219C9.4056 2.10286 9.45117 2.23958 9.4707 2.40234C9.49674 2.55859 9.51302 2.72786 9.51953 2.91016C9.53906 3.70443 9.55208 4.4987 9.55859 5.29297C9.5651 6.08724 9.57812 6.88151 9.59766 7.67578C10.1576 7.6237 10.7142 7.57161 11.2676 7.51953C11.821 7.46094 12.3776 7.3763 12.9375 7.26562C12.9049 6.57552 12.8626 5.89193 12.8105 5.21484C12.765 4.53776 12.6966 3.85417 12.6055 3.16406C12.5534 2.83854 12.4915 2.51628 12.4199 2.19727C12.3483 1.87174 12.3125 1.54297 12.3125 1.21094C12.3125 1.09375 12.3548 1.01888 12.4395 0.986328C12.5306 0.953776 12.625 0.9375 12.7227 0.9375C12.8789 0.9375 13.0352 0.963542 13.1914 1.01562C13.3542 1.06771 13.4844 1.15885 13.582 1.28906C13.6406 1.3737 13.7025 1.55273 13.7676 1.82617C13.8327 2.0931 13.8913 2.41211 13.9434 2.7832C14.002 3.1543 14.0573 3.55469 14.1094 3.98438C14.1615 4.41406 14.207 4.82747 14.2461 5.22461C14.2852 5.61523 14.3177 5.97005 14.3438 6.28906C14.3763 6.60156 14.3958 6.82943 14.4023 6.97266C14.4805 6.95312 14.5618 6.93685 14.6465 6.92383C14.7311 6.9043 14.8125 6.89453 14.8906 6.89453C15.0469 6.89453 15.1608 6.94336 15.2324 7.04102C15.304 7.13216 15.3398 7.2526 15.3398 7.40234ZM23.2012 8.00781C23.2012 8.70443 23.1393 9.39128 23.0156 10.0684C22.8919 10.7389 22.6868 11.3672 22.4004 11.9531C22.1204 12.5391 21.7493 13.0729 21.2871 13.5547C20.8249 14.0299 20.2585 14.4206 19.5879 14.7266C19.4186 14.8047 19.2331 14.8763 19.0312 14.9414C18.8359 15.0065 18.6309 15.0618 18.416 15.1074C18.2077 15.153 17.9993 15.1888 17.791 15.2148C17.5827 15.2409 17.3874 15.2539 17.2051 15.2539C17.1335 15.2539 17.0521 15.2507 16.9609 15.2441C16.8763 15.2441 16.7949 15.2311 16.7168 15.2051C16.6387 15.1855 16.5736 15.1497 16.5215 15.0977C16.4694 15.0456 16.4434 14.974 16.4434 14.8828C16.4434 14.8047 16.4596 14.7233 16.4922 14.6387C16.5247 14.554 16.5671 14.4727 16.6191 14.3945C16.6777 14.3164 16.7396 14.248 16.8047 14.1895C16.8698 14.1243 16.9382 14.0755 17.0098 14.043C16.9772 13.9909 16.9447 13.8444 16.9121 13.6035C16.8861 13.3626 16.86 13.0566 16.834 12.6855C16.8145 12.3145 16.7949 11.901 16.7754 11.4453C16.7559 10.9831 16.7363 10.5078 16.7168 10.0195C16.7038 9.53125 16.6908 9.04622 16.6777 8.56445C16.6712 8.07617 16.6647 7.62695 16.6582 7.2168C16.6517 6.80664 16.6452 6.45182 16.6387 6.15234C16.6387 5.84635 16.6387 5.625 16.6387 5.48828C16.6387 4.8763 16.6484 4.27409 16.668 3.68164C16.6875 3.08919 16.6973 2.48698 16.6973 1.875C16.6257 1.875 16.5573 1.85547 16.4922 1.81641C16.4336 1.77734 16.4043 1.71875 16.4043 1.64062C16.4043 1.53646 16.4303 1.44206 16.4824 1.35742C16.5345 1.26628 16.5996 1.18815 16.6777 1.12305C16.7624 1.05794 16.8535 1.00911 16.9512 0.976562C17.0553 0.9375 17.153 0.917969 17.2441 0.917969C17.3353 0.917969 17.4232 0.927734 17.5078 0.947266C17.5924 0.960286 17.6803 0.976562 17.7715 0.996094C18.6374 1.20443 19.4089 1.52018 20.0859 1.94336C20.763 2.36654 21.3294 2.88086 21.7852 3.48633C22.2474 4.0918 22.599 4.77539 22.8398 5.53711C23.0807 6.29883 23.2012 7.1224 23.2012 8.00781ZM21.7559 7.83203C21.7559 7.18099 21.6777 6.56901 21.5215 5.99609C21.3652 5.41667 21.1309 4.88932 20.8184 4.41406C20.5124 3.93229 20.125 3.50911 19.6562 3.14453C19.194 2.77344 18.6569 2.46745 18.0449 2.22656V2.26562C18.0449 3.94531 18.071 5.61198 18.123 7.26562C18.1816 8.91276 18.2663 10.5729 18.377 12.2461C18.3965 12.5 18.4128 12.7539 18.4258 13.0078C18.4453 13.2552 18.4746 13.5026 18.5137 13.75C19.1257 13.5482 19.64 13.2357 20.0566 12.8125C20.4733 12.3893 20.8053 11.9076 21.0527 11.3672C21.3066 10.8203 21.4857 10.2409 21.5898 9.62891C21.7005 9.01042 21.7559 8.41146 21.7559 7.83203ZM27.5469 13.2129C27.5469 13.4082 27.4915 13.61 27.3809 13.8184C27.2767 14.0267 27.14 14.2188 26.9707 14.3945C26.8014 14.5638 26.6061 14.7038 26.3848 14.8145C26.1699 14.9251 25.9551 14.9805 25.7402 14.9805C25.4342 14.9805 25.1706 14.9219 24.9492 14.8047C24.7279 14.681 24.5358 14.5182 24.373 14.3164C24.2103 14.1081 24.0768 13.8737 23.9727 13.6133C23.875 13.3529 23.7969 13.0859 23.7383 12.8125C23.6797 12.5326 23.6374 12.2559 23.6113 11.9824C23.5918 11.7025 23.582 11.4486 23.582 11.2207C23.582 11.0254 23.5918 10.7943 23.6113 10.5273C23.6374 10.2604 23.6764 9.98372 23.7285 9.69727C23.7871 9.41081 23.8652 9.1276 23.9629 8.84766C24.0605 8.56771 24.181 8.31706 24.3242 8.0957C24.474 7.87435 24.6497 7.69531 24.8516 7.55859C25.0599 7.42188 25.2975 7.35352 25.5645 7.35352C25.7728 7.35352 25.9583 7.39583 26.1211 7.48047C26.2904 7.5651 26.4303 7.67904 26.541 7.82227C26.6582 7.95898 26.7461 8.11849 26.8047 8.30078C26.8698 8.48307 26.9023 8.67188 26.9023 8.86719C26.9023 9.12109 26.8438 9.39779 26.7266 9.69727C26.6094 9.99674 26.4564 10.2865 26.2676 10.5664C26.0853 10.8464 25.877 11.1003 25.6426 11.3281C25.4147 11.5495 25.1868 11.7188 24.959 11.8359C24.972 11.9531 24.998 12.1257 25.0371 12.3535C25.0762 12.5749 25.1283 12.7962 25.1934 13.0176C25.265 13.2389 25.3464 13.431 25.4375 13.5938C25.5352 13.7565 25.6491 13.8379 25.7793 13.8379C25.8444 13.8379 25.8997 13.8184 25.9453 13.7793C25.9974 13.7402 26.043 13.6882 26.082 13.623C26.1211 13.5579 26.1536 13.4863 26.1797 13.4082C26.2122 13.3301 26.2415 13.2552 26.2676 13.1836L26.3262 13.0469C26.3392 13.0273 26.3457 13.0143 26.3457 13.0078C26.3522 13.0013 26.3587 12.9915 26.3652 12.9785C26.4108 12.8939 26.4531 12.8158 26.4922 12.7441C26.5378 12.6725 26.5996 12.6107 26.6777 12.5586H26.668C26.694 12.5326 26.7201 12.5195 26.7461 12.5195C26.7786 12.513 26.8079 12.5098 26.834 12.5098C26.9056 12.5098 26.9837 12.5326 27.0684 12.5781C27.153 12.6237 27.2311 12.6823 27.3027 12.7539C27.3743 12.819 27.4329 12.8939 27.4785 12.9785C27.5241 13.0566 27.5469 13.1348 27.5469 13.2129ZM25.6133 8.90625C25.6133 8.84115 25.61 8.77279 25.6035 8.70117C25.597 8.62956 25.5807 8.56771 25.5547 8.51562C25.4635 8.6263 25.3822 8.75977 25.3105 8.91602C25.2454 9.06576 25.1901 9.22526 25.1445 9.39453C25.099 9.55729 25.0599 9.72331 25.0273 9.89258C25.0013 10.0618 24.9818 10.2181 24.9688 10.3613C25.138 10.1595 25.2878 9.93164 25.418 9.67773C25.5482 9.41732 25.6133 9.16016 25.6133 8.90625ZM31.6094 7.91992C31.6094 8.81836 31.5378 9.70378 31.3945 10.5762C31.2578 11.4486 31.0918 12.3177 30.8965 13.1836C30.8704 13.2682 30.8542 13.3398 30.8477 13.3984C30.8086 13.5872 30.7663 13.7826 30.7207 13.9844C30.6816 14.1797 30.6165 14.375 30.5254 14.5703C30.4408 14.7331 30.3236 14.8763 30.1738 15C30.0306 15.1172 29.8711 15.1758 29.6953 15.1758C29.6237 15.1758 29.5488 15.1595 29.4707 15.127C29.3926 15.0944 29.3079 15.0521 29.2168 15C29.0866 14.9089 28.9889 14.7852 28.9238 14.6289C28.8587 14.4661 28.8034 14.3001 28.7578 14.1309L28.7383 14.0625V14.0723C28.6276 13.6491 28.5332 13.2259 28.4551 12.8027C28.3835 12.3796 28.3118 11.9531 28.2402 11.5234C28.2012 11.2565 28.1621 10.9928 28.123 10.7324C28.084 10.4655 28.0384 10.2018 27.9863 9.94141L27.8496 9.36523C27.8171 9.23503 27.7812 9.09505 27.7422 8.94531C27.7096 8.78906 27.6771 8.64258 27.6445 8.50586C27.612 8.36914 27.5859 8.2487 27.5664 8.14453C27.5469 8.03385 27.5371 7.95898 27.5371 7.91992C27.5371 7.79622 27.5762 7.71484 27.6543 7.67578C27.7389 7.63021 27.8333 7.60742 27.9375 7.60742C28.1458 7.60742 28.3281 7.65299 28.4844 7.74414C28.6471 7.83529 28.7643 7.98503 28.8359 8.19336C28.875 8.30404 28.9076 8.42122 28.9336 8.54492C28.9661 8.66862 28.9922 8.79232 29.0117 8.91602C29.1224 9.3457 29.2266 9.80143 29.3242 10.2832C29.4284 10.7585 29.5163 11.2174 29.5879 11.6602L29.6758 12.1582C29.6823 12.1908 29.6855 12.2168 29.6855 12.2363C29.6855 12.2559 29.6855 12.2721 29.6855 12.2852C29.6921 12.2982 29.6953 12.3145 29.6953 12.334C29.7018 12.3535 29.7083 12.3828 29.7148 12.4219C29.8581 11.7318 29.9785 11.0417 30.0762 10.3516C30.1738 9.65495 30.2227 8.95508 30.2227 8.25195C30.2227 8.10872 30.2129 7.96875 30.1934 7.83203C30.1803 7.69531 30.1641 7.55208 30.1445 7.40234C30.125 7.26562 30.1055 7.12565 30.0859 6.98242C30.0729 6.83268 30.0664 6.68294 30.0664 6.5332C30.0664 6.39648 30.1087 6.30208 30.1934 6.25C30.278 6.19792 30.3822 6.17188 30.5059 6.17188C30.6556 6.17188 30.7923 6.18164 30.916 6.20117C31.0397 6.2207 31.1471 6.25977 31.2383 6.31836C31.3294 6.37044 31.4043 6.44857 31.4629 6.55273C31.5215 6.65039 31.5605 6.7806 31.5801 6.94336C31.5931 7.0931 31.5996 7.25586 31.5996 7.43164C31.6061 7.60091 31.6094 7.76367 31.6094 7.91992ZM32.0293 13.9453C32.0293 13.8802 32.0521 13.8314 32.0977 13.7988C32.1432 13.7598 32.1986 13.7337 32.2637 13.7207C32.3353 13.7012 32.4036 13.6914 32.4688 13.6914C32.5404 13.6914 32.6022 13.6914 32.6543 13.6914C32.7194 13.6914 32.7943 13.6947 32.8789 13.7012C32.9701 13.7012 33.0547 13.7142 33.1328 13.7402C33.2109 13.7598 33.276 13.7956 33.3281 13.8477C33.3867 13.8932 33.416 13.9583 33.416 14.043C33.416 14.0755 33.4128 14.1471 33.4062 14.2578C33.4062 14.362 33.403 14.4759 33.3965 14.5996C33.3965 14.7233 33.3932 14.8372 33.3867 14.9414C33.3867 15.0391 33.3835 15.0911 33.377 15.0977C33.3249 15.1693 33.2565 15.2083 33.1719 15.2148C33.0938 15.2279 33.0189 15.2344 32.9473 15.2344C32.7454 15.2344 32.5957 15.2246 32.498 15.2051C32.4004 15.1855 32.3288 15.1465 32.2832 15.0879C32.2376 15.0293 32.2083 14.9479 32.1953 14.8438C32.1888 14.7396 32.1725 14.6029 32.1465 14.4336C32.127 14.3555 32.1009 14.2773 32.0684 14.1992C32.0423 14.1211 32.0293 14.0365 32.0293 13.9453Z" fill="white"/>
</svg>
